<?xml version="1.0" encoding="UTF-8"?>
<svg id="Layer_1" data-name="Layer 1" xmlns="http://www.w3.org/2000/svg" version="1.1" viewBox="0 0 5898.24 5898.24">
  <defs>
    <style>
      .cls-1 {
        fill: #000;
      }

      .cls-1, .cls-2 {
        strokeWidth: 0px;
      }

      .cls-2 {
        fill: #57b233;
      }
    </style>
  </defs>
  <g>
    <polygon class="cls-1" points="4070.75 508.36 5389.61 508.36 3971.52 2396.4 5389.61 4320.09 4070.75 4320.09 2683.76 2414.23 4070.75 508.36"/>
    <path class="cls-2" d="M1585.39,2454.35l-1.54-40.13c105.14-1070.19,1206.88-785.84,1206.88-785.84l833.84-1120.02s-920.71,20.67-1282.66,12.17c-166.92-3.92-334.14,14.22-494.27,61.5C516.45,975.18,508.63,2414.23,508.63,2414.23v26.77s7.82,1439.04,1339.02,1832.19c160.13,47.29,327.35,65.42,494.27,61.5,361.95-8.49,1282.66,12.17,1282.66,12.17l-833.84-1120.02s-1092.26,281.75-1205.34-772.48Z"/>
  </g>
  <g>
    <path class="cls-1" d="M870.53,5377.63c-44.08,0-84.81-7.98-122.22-23.92s-70.03-38.28-97.86-66.98c-27.84-28.71-49.3-62.05-64.37-100.04-15.09-37.98-22.62-78.73-22.62-122.22s7.53-84.23,22.62-122.22c15.07-37.98,36.54-71.18,64.37-99.6,27.84-28.41,60.46-50.74,97.86-66.98,37.41-16.23,78.14-24.36,122.22-24.36,49.28,0,91.91,8.13,127.87,24.36,35.95,16.24,67.85,38.27,95.69,66.11l-67.85,67.85c-17.98-19.71-39.88-35.08-65.68-46.1-25.81-11.01-55.82-16.53-90.03-16.53-30.16,0-57.71,5.22-82.64,15.66-24.94,10.44-46.54,25.38-64.81,44.8-18.27,19.44-32.34,42.49-42.19,69.16-9.87,26.68-14.79,55.97-14.79,87.86s4.92,61.19,14.79,87.86c9.85,26.68,23.92,49.73,42.19,69.16,18.27,19.44,39.87,34.36,64.81,44.8,24.93,10.44,52.48,15.66,82.64,15.66,37.11,0,68.57-5.65,94.38-16.96,25.8-11.31,47.69-26.82,65.68-46.54l67.85,67.85c-27.84,28.42-60.61,50.75-98.3,66.98-37.7,16.23-80.9,24.36-129.61,24.36Z"/>
    <path class="cls-1" d="M1209.79,5368.93v-608.92h100.04v608.92h-100.04ZM1278.51,5110.57v-82.64h153.97c30.73,0,54.65-7.96,71.77-23.92,17.1-15.94,25.66-38.13,25.66-66.55,0-25.51-8.41-46.97-25.23-64.37-16.83-17.4-40.6-26.1-71.33-26.1h-154.84v-86.99h159.19c38.27,0,71.9,7.69,100.91,23.05,28.99,15.37,51.46,36.25,67.42,62.63,15.94,26.4,23.92,56.41,23.92,90.03,0,35.38-7.98,66.11-23.92,92.21-15.96,26.1-38.42,46.4-67.42,60.89-29.01,14.5-62.63,21.75-100.91,21.75h-159.19ZM1543.83,5368.93l-213.12-264.45,93.08-33.93,246.18,298.37h-126.13Z"/>
    <path class="cls-1" d="M1701.27,5368.93l250.53-608.92h69.59l248.79,608.92h-107.87l-194.85-493.23h36.54l-196.59,493.23h-106.13ZM1824.8,5251.49v-86.99h322.73v86.99h-322.73Z"/>
    <path class="cls-1" d="M2378.91,5368.93v-608.92h100.04v608.92h-100.04ZM2746.87,5368.93l-281.84-317.51,275.75-291.41h127.87l-304.46,316.64v-54.8l313.16,347.09h-130.48Z"/>
    <path class="cls-1" d="M3206.18,5377.63c-44.08,0-84.81-7.98-122.22-23.92-37.41-15.94-70.03-38.28-97.86-66.98-27.84-28.71-49.3-62.05-64.37-100.04-15.09-37.98-22.62-78.73-22.62-122.22s7.53-84.23,22.62-122.22c15.07-37.98,36.54-71.18,64.37-99.6,27.84-28.41,60.46-50.74,97.86-66.98,37.41-16.23,78.14-24.36,122.22-24.36,49.28,0,91.91,8.13,127.87,24.36,35.95,16.24,67.85,38.27,95.69,66.11l-67.85,67.85c-17.98-19.71-39.88-35.08-65.68-46.1-25.81-11.01-55.82-16.53-90.03-16.53-30.16,0-57.71,5.22-82.64,15.66-24.94,10.44-46.54,25.38-64.81,44.8-18.27,19.44-32.34,42.49-42.19,69.16-9.87,26.68-14.79,55.97-14.79,87.86s4.92,61.19,14.79,87.86c9.85,26.68,23.92,49.73,42.19,69.16,18.27,19.44,39.87,34.36,64.81,44.8,24.93,10.44,52.48,15.66,82.64,15.66,37.11,0,68.57-5.65,94.38-16.96,25.8-11.31,47.69-26.82,65.68-46.54l67.85,67.85c-27.84,28.42-60.61,50.75-98.3,66.98-37.7,16.23-80.9,24.36-129.61,24.36Z"/>
    <path class="cls-1" d="M3825.54,5377.63c-43.49,0-84.09-8.13-121.78-24.36-37.7-16.23-70.76-38.71-99.17-67.42-28.42-28.71-50.6-62.05-66.55-100.04-15.96-37.98-23.92-78.73-23.92-122.22s7.96-84.08,23.92-121.78c15.94-37.69,37.98-70.9,66.11-99.6,28.12-28.71,60.89-51.02,98.3-66.98,37.41-15.94,77.85-23.92,121.35-23.92s83.94,7.98,121.35,23.92c37.41,15.96,70.31,38.28,98.73,66.98,28.41,28.71,50.59,62.06,66.55,100.04,15.94,37.99,23.92,78.73,23.92,122.22s-7.98,84.24-23.92,122.22c-15.96,37.99-37.99,71.19-66.11,99.6-28.14,28.42-60.89,50.75-98.3,66.98-37.41,16.23-77.57,24.36-120.48,24.36ZM3823.8,5281.94c41.17,0,77.27-9.27,108.3-27.84,31.02-18.55,55.37-44.21,73.07-76.99,17.68-32.76,26.53-70.6,26.53-113.52,0-31.89-5.08-61.03-15.22-87.42-10.15-26.38-24.51-49.28-43.06-68.72-18.57-19.42-40.45-34.36-65.68-44.8-25.23-10.44-53.21-15.66-83.94-15.66-40.6,0-76.41,9.13-107.43,27.4-31.03,18.27-55.39,43.64-73.07,76.12-17.7,32.48-26.53,70.17-26.53,113.08,0,31.9,5.07,61.33,15.22,88.29,10.14,26.97,24.36,50.02,42.62,69.16s40.15,34.08,65.68,44.8c25.51,10.74,53.35,16.09,83.51,16.09Z"/>
    <path class="cls-1" d="M4257.86,5368.93v-608.92h100.04v608.92h-100.04ZM4326.58,5368.93v-91.34h160.06c41.75,0,78.43-8.98,110.04-26.97,31.6-17.97,56.24-43.06,73.94-75.25,17.68-32.19,26.53-69.44,26.53-111.78s-9-78.58-26.97-110.48c-17.98-31.89-42.77-56.83-74.38-74.81-31.62-17.97-68-26.97-109.17-26.97h-160.06v-91.34h162.67c44.07,0,84.95,7.69,122.65,23.05,37.69,15.37,70.6,36.83,98.73,64.37,28.12,27.55,50.02,59.74,65.68,96.56,15.66,36.83,23.49,76.99,23.49,120.48s-7.83,82.94-23.49,120.04c-15.66,37.12-37.41,69.46-65.24,96.99-27.84,27.55-60.61,49.01-98.3,64.37-37.7,15.37-78.29,23.05-121.78,23.05h-164.41Z"/>
    <path class="cls-1" d="M4923.32,5368.93v-608.92h100.04v608.92h-100.04ZM4992.04,4851.34v-91.34h336.65v91.34h-336.65ZM4992.04,5101.87v-87.86h311.42v87.86h-311.42ZM4992.04,5368.93v-91.34h341v91.34h-341Z"/>
  </g>
</svg>